<svg xmlns="http://www.w3.org/2000/svg" xmlns:xlink="http://www.w3.org/1999/xlink" width="1080" zoomAndPan="magnify" viewBox="0 0 810 809.999993" height="1080" preserveAspectRatio="xMidYMid meet" version="1.0"><defs><clipPath id="c535ac4258"><path d="M 20 40.5 L 770 40.5 L 770 769.4375 L 20 769.4375 Z M 20 40.5 " clip-rule="nonzero"/></clipPath><clipPath id="6e678e01d2"><path d="M 0.269531 56 L 809.78125 56 L 809.78125 769.4375 L 0.269531 769.4375 Z M 0.269531 56 " clip-rule="nonzero"/></clipPath></defs><g clip-path="url(#c535ac4258)"><path fill="#fab328" d="M 137.667969 398.507812 L 62.425781 398.507812 C 59.421875 398.507812 56.996094 396.082031 56.996094 393.082031 L 56.996094 383.679688 C 56.996094 380.683594 59.421875 378.253906 62.425781 378.253906 L 137.667969 378.253906 C 140.667969 378.253906 143.09375 380.683594 143.09375 383.679688 L 143.09375 393.082031 C 143.09375 396.082031 140.667969 398.507812 137.667969 398.507812 Z M 20.222656 334.429688 L 20.222656 304.011719 L 36.714844 304.011719 L 36.714844 334.429688 C 36.714844 335.511719 35.835938 336.390625 34.753906 336.390625 L 22.183594 336.390625 C 21.101562 336.390625 20.222656 335.511719 20.222656 334.429688 Z M 156.800781 124.917969 L 156.691406 124.894531 L 156.691406 108.761719 C 156.691406 71.0625 126.128906 40.5 88.429688 40.5 C 50.726562 40.5 20.171875 71.0625 20.171875 108.761719 L 20.171875 140.316406 L 23.953125 140.316406 L 39.523438 195.613281 C 40.136719 197.78125 42.386719 199.039062 44.550781 198.433594 L 54.164062 195.726562 C 56.332031 195.113281 57.589844 192.863281 56.984375 190.699219 L 37.980469 123.234375 C 37.367188 121.074219 35.121094 119.816406 32.953125 120.421875 L 27.070312 122.078125 L 27.070312 111.71875 C 27.070312 77.546875 54.546875 55.703125 88.429688 55.703125 C 122.320312 55.703125 149.785156 77.546875 149.785156 111.71875 L 149.785156 122.945312 L 147.1875 122.210938 C 145.019531 121.605469 142.773438 122.863281 142.164062 125.03125 L 123.15625 192.488281 C 122.550781 194.65625 123.808594 196.902344 125.976562 197.515625 L 135.589844 200.222656 C 137.75 200.828125 140.003906 199.570312 140.617188 197.410156 L 159.613281 129.945312 C 160.226562 127.78125 158.960938 125.53125 156.800781 124.917969 Z M 338.230469 146.710938 L 340.667969 149.144531 L 359.480469 130.332031 L 357.046875 127.894531 Z M 359.289062 121.65625 L 356.855469 119.21875 L 338.042969 138.035156 L 340.476562 140.46875 Z M 747.871094 769.4375 L 55.140625 769.4375 C 55.140625 769.4375 105.386719 657.351562 163.207031 595.367188 C 221.023438 533.386719 183.132812 494.058594 223.503906 401.160156 C 331.761719 152.042969 501.363281 120.289062 638.894531 155.929688 C 872.050781 216.34375 584.75 380.070312 702.546875 411.214844 C 820.339844 442.359375 747.871094 769.4375 747.871094 769.4375 " fill-opacity="1" fill-rule="nonzero"/></g><path fill="#ef2b47" d="M 128.695312 613.710938 L 47.578125 613.710938 C 46.082031 613.710938 44.867188 614.925781 44.867188 616.417969 L 44.867188 622.550781 L 50.875 622.550781 L 56.320312 682.371094 L 119.957031 682.371094 L 125.402344 622.550781 L 131.410156 622.550781 L 131.410156 616.417969 C 131.410156 614.925781 130.195312 613.710938 128.695312 613.710938 Z M 411.679688 593.660156 C 411.679688 583.332031 401.792969 574.953125 389.601562 574.953125 C 377.410156 574.953125 367.523438 583.332031 367.523438 593.660156 C 367.523438 603.992188 377.410156 612.363281 389.601562 612.363281 C 401.792969 612.363281 411.679688 603.992188 411.679688 593.660156 Z M 543.777344 511.535156 L 553.625 531.957031 L 553.625 511.535156 Z M 586.425781 587.195312 L 585.875 596.667969 L 507.695312 622.484375 L 505.246094 614.515625 L 500.777344 676.261719 L 487.914062 676.667969 L 488.894531 667.574219 C 489.226562 666.0625 488.242188 664.585938 486.882812 664.585938 L 299.859375 664.585938 L 289.152344 580.617188 L 246.523438 627.679688 L 181.988281 590.359375 L 181.226562 577.785156 C 181.007812 574.0625 183.738281 570.816406 187.445312 570.40625 L 192.042969 569.898438 L 274.039062 462.007812 L 396.671875 415.292969 L 516.742188 455.488281 L 541.835938 507.515625 L 553.761719 507.515625 C 554.789062 507.515625 555.671875 507.894531 556.425781 508.652344 C 557.171875 509.40625 557.550781 510.304688 557.550781 511.347656 L 557.550781 535.113281 C 557.550781 536.15625 557.179688 537.054688 556.445312 537.800781 L 575.984375 578.328125 L 581.519531 580.074219 C 584.585938 581.042969 586.609375 583.976562 586.425781 587.195312 Z M 649.832031 201.375 L 664.261719 201.375 C 665.40625 201.375 666.335938 200.449219 666.335938 199.304688 L 666.335938 196.777344 L 647.761719 196.777344 L 647.761719 199.304688 C 647.761719 200.449219 648.683594 201.375 649.832031 201.375 Z M 435.941406 150.347656 C 439.566406 150.347656 442.511719 147.398438 442.511719 143.777344 C 442.511719 140.152344 439.566406 137.207031 435.941406 137.207031 C 432.324219 137.207031 429.371094 140.152344 429.371094 143.777344 C 429.371094 147.398438 432.324219 150.347656 435.941406 150.347656 Z M 428.734375 95.871094 L 268.882812 95.871094 L 268.882812 191.679688 L 428.734375 191.679688 Z M 614.011719 524.710938 C 613.453125 524.710938 612.988281 524.90625 612.601562 525.296875 C 612.214844 525.6875 612.027344 526.152344 612.027344 526.6875 L 612.027344 534.964844 L 608.054688 534.964844 L 608.054688 507.566406 L 598.074219 507.566406 C 597.523438 507.566406 597.050781 507.753906 596.664062 508.140625 C 596.277344 508.53125 596.089844 509 596.089844 509.550781 C 596.089844 510.101562 596.277344 510.570312 596.664062 510.953125 C 597.050781 511.339844 597.523438 511.535156 598.074219 511.535156 L 604.078125 511.535156 L 604.078125 534.964844 L 597.980469 534.964844 C 597.429688 534.964844 596.957031 535.15625 596.570312 535.535156 C 596.183594 535.914062 595.996094 536.371094 595.996094 536.90625 C 595.996094 537.457031 596.183594 537.933594 596.570312 538.335938 C 596.957031 538.734375 597.429688 538.9375 597.980469 538.9375 L 614.011719 538.9375 C 614.5625 538.9375 615.03125 538.75 615.414062 538.355469 C 615.800781 537.96875 615.996094 537.503906 615.996094 536.953125 L 615.996094 526.6875 C 615.996094 526.136719 615.800781 525.671875 615.414062 525.285156 C 615.03125 524.898438 614.5625 524.710938 614.011719 524.710938 Z M 582.871094 511.535156 L 570.769531 511.535156 L 570.769531 534.964844 L 582.871094 534.964844 Z M 585.675781 508.652344 C 586.421875 509.40625 586.800781 510.304688 586.800781 511.347656 L 586.800781 535.113281 C 586.800781 536.167969 586.421875 537.066406 585.675781 537.8125 C 584.921875 538.566406 584.023438 538.9375 582.96875 538.9375 L 570.625 538.9375 C 569.554688 538.9375 568.648438 538.566406 567.902344 537.8125 C 567.164062 537.066406 566.789062 536.167969 566.789062 535.113281 L 566.789062 511.347656 C 566.789062 510.304688 567.171875 509.40625 567.929688 508.652344 C 568.683594 507.894531 569.578125 507.515625 570.625 507.515625 L 583.011719 507.515625 C 584.035156 507.515625 584.921875 507.894531 585.675781 508.652344 Z M 734.496094 431 L 734.496094 438.234375 L 730.523438 438.234375 L 730.523438 426.933594 C 729.238281 425.714844 727.917969 424.550781 726.550781 423.4375 L 726.550781 438.234375 L 720.449219 438.234375 C 719.898438 438.234375 719.429688 438.425781 719.046875 438.804688 C 718.660156 439.183594 718.46875 439.640625 718.46875 440.175781 C 718.46875 440.726562 718.660156 441.203125 719.046875 441.605469 C 719.429688 442.003906 719.898438 442.207031 720.449219 442.207031 L 736.480469 442.207031 C 737.03125 442.207031 737.503906 442.019531 737.890625 441.625 C 738.277344 441.238281 738.464844 440.773438 738.464844 440.222656 L 738.464844 435.75 C 737.1875 434.105469 735.867188 432.519531 734.496094 431 Z M 705.339844 414.804688 L 693.238281 414.804688 L 693.238281 438.234375 L 705.339844 438.234375 Z M 709.035156 413.308594 C 709.179688 413.71875 709.269531 414.148438 709.269531 414.617188 L 709.269531 438.382812 C 709.269531 439.4375 708.894531 440.335938 708.148438 441.082031 C 707.398438 441.835938 706.492188 442.207031 705.4375 442.207031 L 693.09375 442.207031 C 692.023438 442.207031 691.117188 441.835938 690.378906 441.082031 C 689.632812 440.335938 689.265625 439.4375 689.265625 438.382812 L 689.265625 414.617188 C 689.265625 413.574219 689.644531 412.675781 690.398438 411.921875 C 691.15625 411.164062 692.054688 410.785156 693.09375 410.785156 L 701.027344 410.785156 C 701.527344 410.929688 702.027344 411.074219 702.546875 411.214844 C 704.777344 411.800781 706.933594 412.511719 709.035156 413.308594 Z M 676.09375 414.804688 L 663.988281 414.804688 L 663.988281 438.234375 L 676.09375 438.234375 Z M 678.894531 411.921875 C 679.648438 412.675781 680.019531 413.574219 680.019531 414.617188 L 680.019531 438.382812 C 680.019531 439.4375 679.648438 440.335938 678.894531 441.082031 C 678.148438 441.835938 677.246094 442.207031 676.1875 442.207031 L 663.851562 442.207031 C 662.773438 442.207031 661.871094 441.835938 661.132812 441.082031 C 660.390625 440.335938 660.019531 439.4375 660.019531 438.382812 L 660.019531 414.617188 C 660.019531 413.574219 660.398438 412.675781 661.15625 411.921875 C 661.910156 411.164062 662.808594 410.785156 663.851562 410.785156 L 676.238281 410.785156 C 677.261719 410.785156 678.148438 411.164062 678.894531 411.921875 Z M 648.742188 427.980469 C 648.191406 427.980469 647.71875 428.175781 647.332031 428.566406 C 646.945312 428.957031 646.757812 429.425781 646.757812 429.957031 L 646.757812 438.234375 L 642.785156 438.234375 L 642.785156 410.835938 L 632.804688 410.835938 C 632.25 410.835938 631.789062 411.023438 631.394531 411.410156 C 631.011719 411.800781 630.820312 412.269531 630.820312 412.820312 C 630.820312 413.371094 631.011719 413.839844 631.394531 414.222656 C 631.789062 414.609375 632.25 414.804688 632.804688 414.804688 L 638.8125 414.804688 L 638.8125 438.234375 L 632.710938 438.234375 C 632.160156 438.234375 631.6875 438.425781 631.300781 438.804688 C 630.921875 439.183594 630.726562 439.640625 630.726562 440.175781 C 630.726562 440.726562 630.921875 441.203125 631.300781 441.605469 C 631.6875 442.003906 632.160156 442.207031 632.710938 442.207031 L 648.742188 442.207031 C 649.292969 442.207031 649.761719 442.019531 650.144531 441.625 C 650.53125 441.238281 650.726562 440.773438 650.726562 440.222656 L 650.726562 429.957031 C 650.726562 429.40625 650.53125 428.941406 650.144531 428.554688 C 649.761719 428.167969 649.292969 427.980469 648.742188 427.980469 Z M 617.601562 414.804688 L 605.5 414.804688 L 605.5 438.234375 L 617.601562 438.234375 Z M 620.40625 411.921875 C 621.152344 412.675781 621.523438 413.574219 621.523438 414.617188 L 621.523438 438.382812 C 621.523438 439.4375 621.152344 440.335938 620.40625 441.082031 C 619.652344 441.835938 618.753906 442.207031 617.699219 442.207031 L 605.355469 442.207031 C 604.285156 442.207031 603.375 441.835938 602.636719 441.082031 C 601.894531 440.335938 601.523438 439.4375 601.523438 438.382812 L 601.523438 414.617188 C 601.523438 413.574219 601.902344 412.675781 602.660156 411.921875 C 603.414062 411.164062 604.3125 410.785156 605.355469 410.785156 L 617.742188 410.785156 C 618.765625 410.785156 619.652344 411.164062 620.40625 411.921875 Z M 570.484375 324.128906 L 582.582031 324.128906 L 582.582031 300.695312 L 570.484375 300.695312 Z M 570.339844 296.675781 L 582.726562 296.675781 C 583.75 296.675781 584.636719 297.054688 585.390625 297.8125 C 586.136719 298.566406 586.507812 299.46875 586.507812 300.507812 L 586.507812 324.273438 C 586.507812 325.328125 586.136719 326.226562 585.390625 326.980469 C 584.636719 327.726562 583.738281 328.097656 582.683594 328.097656 L 570.339844 328.097656 C 569.269531 328.097656 568.359375 327.726562 567.621094 326.980469 C 566.878906 326.226562 566.507812 325.328125 566.507812 324.273438 L 566.507812 300.507812 C 566.507812 299.46875 566.886719 298.566406 567.644531 297.8125 C 568.398438 297.054688 569.296875 296.675781 570.339844 296.675781 Z M 539.199219 324.128906 C 538.648438 324.128906 538.175781 324.316406 537.789062 324.695312 C 537.402344 325.074219 537.214844 325.53125 537.214844 326.070312 C 537.214844 326.617188 537.402344 327.09375 537.789062 327.496094 C 538.175781 327.894531 538.648438 328.097656 539.199219 328.097656 L 555.230469 328.097656 C 555.78125 328.097656 556.25 327.910156 556.632812 327.523438 C 557.019531 327.136719 557.214844 326.667969 557.214844 326.121094 L 557.214844 315.855469 C 557.214844 315.300781 557.019531 314.832031 556.632812 314.445312 C 556.25 314.058594 555.78125 313.871094 555.230469 313.871094 C 554.675781 313.871094 554.207031 314.066406 553.820312 314.457031 C 553.433594 314.855469 553.246094 315.316406 553.246094 315.855469 L 553.246094 324.128906 L 549.273438 324.128906 L 549.273438 296.726562 L 539.292969 296.726562 C 538.746094 296.726562 538.269531 296.921875 537.890625 297.308594 C 537.5 297.695312 537.308594 298.160156 537.308594 298.710938 C 537.308594 299.269531 537.5 299.734375 537.890625 300.117188 C 538.269531 300.507812 538.746094 300.695312 539.292969 300.695312 L 545.300781 300.695312 L 545.300781 324.128906 Z M 511.988281 324.128906 L 524.09375 324.128906 L 524.09375 300.695312 L 511.988281 300.695312 Z M 511.84375 296.675781 L 524.230469 296.675781 C 525.253906 296.675781 526.140625 297.054688 526.894531 297.8125 C 527.640625 298.566406 528.011719 299.46875 528.011719 300.507812 L 528.011719 324.273438 C 528.011719 325.328125 527.640625 326.226562 526.894531 326.980469 C 526.140625 327.726562 525.242188 328.097656 524.1875 328.097656 L 511.84375 328.097656 C 510.773438 328.097656 509.863281 327.726562 509.125 326.980469 C 508.382812 326.226562 508.015625 325.328125 508.015625 324.273438 L 508.015625 300.507812 C 508.015625 299.46875 508.390625 298.566406 509.148438 297.8125 C 509.90625 297.054688 510.804688 296.675781 511.84375 296.675781 Z M 490.777344 296.726562 L 480.796875 296.726562 C 480.25 296.726562 479.78125 296.921875 479.394531 297.308594 C 479.007812 297.695312 478.8125 298.160156 478.8125 298.710938 C 478.8125 299.269531 479.007812 299.734375 479.394531 300.117188 C 479.78125 300.507812 480.25 300.695312 480.796875 300.695312 L 486.804688 300.695312 L 486.804688 324.128906 L 480.703125 324.128906 C 480.152344 324.128906 479.683594 324.316406 479.300781 324.695312 C 478.914062 325.074219 478.71875 325.53125 478.71875 326.070312 C 478.71875 326.617188 478.914062 327.09375 479.300781 327.496094 C 479.683594 327.894531 480.152344 328.097656 480.703125 328.097656 L 496.734375 328.097656 C 497.285156 328.097656 497.757812 327.910156 498.136719 327.523438 C 498.53125 327.136719 498.71875 326.667969 498.71875 326.121094 L 498.71875 315.855469 C 498.71875 315.300781 498.53125 314.832031 498.136719 314.445312 C 497.757812 314.058594 497.285156 313.871094 496.734375 313.871094 C 496.183594 313.871094 495.714844 314.066406 495.332031 314.457031 C 494.945312 314.855469 494.75 315.316406 494.75 315.855469 L 494.75 324.128906 L 490.777344 324.128906 Z M 453.492188 324.128906 L 465.59375 324.128906 L 465.59375 300.695312 L 453.492188 300.695312 Z M 453.347656 296.675781 L 465.742188 296.675781 C 466.765625 296.675781 467.652344 297.054688 468.398438 297.8125 C 469.148438 298.566406 469.523438 299.46875 469.523438 300.507812 L 469.523438 324.273438 C 469.523438 325.328125 469.148438 326.226562 468.398438 326.980469 C 467.652344 327.726562 466.746094 328.097656 465.691406 328.097656 L 453.347656 328.097656 C 452.277344 328.097656 451.375 327.726562 450.632812 326.980469 C 449.886719 326.226562 449.519531 325.328125 449.519531 324.273438 L 449.519531 300.507812 C 449.519531 299.46875 449.898438 298.566406 450.652344 297.8125 C 451.410156 297.054688 452.308594 296.675781 453.347656 296.675781 Z M 422.214844 324.128906 C 421.65625 324.128906 421.1875 324.316406 420.804688 324.695312 C 420.417969 325.074219 420.226562 325.53125 420.226562 326.070312 C 420.226562 326.617188 420.417969 327.09375 420.804688 327.496094 C 421.1875 327.894531 421.65625 328.097656 422.214844 328.097656 L 438.238281 328.097656 C 438.789062 328.097656 439.261719 327.910156 439.648438 327.523438 C 440.035156 327.136719 440.230469 326.667969 440.230469 326.121094 L 440.230469 315.855469 C 440.230469 315.300781 440.035156 314.832031 439.648438 314.445312 C 439.261719 314.058594 438.789062 313.871094 438.238281 313.871094 C 437.6875 313.871094 437.21875 314.066406 436.835938 314.457031 C 436.449219 314.855469 436.253906 315.316406 436.253906 315.855469 L 436.253906 324.128906 L 432.28125 324.128906 L 432.28125 296.726562 L 422.300781 296.726562 C 421.753906 296.726562 421.285156 296.921875 420.898438 297.308594 C 420.511719 297.695312 420.324219 298.160156 420.324219 298.710938 C 420.324219 299.269531 420.511719 299.734375 420.898438 300.117188 C 421.285156 300.507812 421.753906 300.695312 422.300781 300.695312 L 428.308594 300.695312 L 428.308594 324.128906 Z M 392.964844 324.128906 C 392.410156 324.128906 391.941406 324.316406 391.554688 324.695312 C 391.175781 325.074219 390.980469 325.53125 390.980469 326.070312 C 390.980469 326.617188 391.175781 327.09375 391.554688 327.496094 C 391.941406 327.894531 392.410156 328.097656 392.964844 328.097656 L 408.996094 328.097656 C 409.546875 328.097656 410.015625 327.910156 410.402344 327.523438 C 410.785156 327.136719 410.980469 326.667969 410.980469 326.121094 L 410.980469 315.855469 C 410.980469 315.300781 410.785156 314.832031 410.402344 314.445312 C 410.015625 314.058594 409.546875 313.871094 408.996094 313.871094 C 408.441406 313.871094 407.972656 314.066406 407.585938 314.457031 C 407.199219 314.855469 407.003906 315.316406 407.003906 315.855469 L 407.003906 324.128906 L 403.035156 324.128906 L 403.035156 296.726562 L 393.058594 296.726562 C 392.503906 296.726562 392.035156 296.921875 391.65625 297.308594 C 391.265625 297.695312 391.074219 298.160156 391.074219 298.710938 C 391.074219 299.269531 391.265625 299.734375 391.65625 300.117188 C 392.035156 300.507812 392.503906 300.695312 393.058594 300.695312 L 399.066406 300.695312 L 399.066406 324.128906 Z M 365.753906 324.128906 L 377.859375 324.128906 L 377.859375 300.695312 L 365.753906 300.695312 Z M 362.890625 326.980469 C 362.148438 326.226562 361.78125 325.328125 361.78125 324.273438 L 361.78125 300.507812 C 361.78125 299.46875 362.15625 298.566406 362.914062 297.8125 C 363.671875 297.054688 364.566406 296.675781 365.609375 296.675781 L 377.996094 296.675781 C 379.019531 296.675781 379.90625 297.054688 380.660156 297.8125 C 381.40625 298.566406 381.777344 299.46875 381.777344 300.507812 L 381.777344 324.273438 C 381.777344 325.328125 381.40625 326.226562 380.660156 326.980469 C 379.90625 327.726562 379.007812 328.097656 377.953125 328.097656 L 365.609375 328.097656 C 364.539062 328.097656 363.628906 327.726562 362.890625 326.980469 Z M 693.289062 244.925781 L 681.175781 244.925781 L 681.175781 268.355469 L 693.289062 268.355469 Z M 693.382812 272.328125 L 681.039062 272.328125 C 679.96875 272.328125 679.058594 271.953125 678.320312 271.203125 C 677.578125 270.457031 677.207031 269.550781 677.207031 268.496094 L 677.207031 244.730469 C 677.207031 243.695312 677.585938 242.796875 678.34375 242.035156 C 679.097656 241.285156 679.996094 240.90625 681.039062 240.90625 L 693.425781 240.90625 C 694.453125 240.90625 695.335938 241.285156 696.089844 242.035156 C 696.835938 242.796875 697.207031 243.695312 697.207031 244.730469 L 697.207031 268.496094 C 697.207031 269.550781 696.835938 270.457031 696.089844 271.203125 C 695.335938 271.953125 694.4375 272.328125 693.382812 272.328125 Z M 664.527344 258.679688 C 664.136719 259.078125 663.945312 259.546875 663.945312 260.078125 L 663.945312 268.355469 L 659.972656 268.355469 L 659.972656 240.949219 L 649.996094 240.949219 C 649.445312 240.949219 648.96875 241.144531 648.589844 241.53125 C 648.199219 241.917969 648.007812 242.382812 648.007812 242.941406 C 648.007812 243.492188 648.199219 243.960938 648.589844 244.34375 C 648.96875 244.730469 649.445312 244.925781 649.996094 244.925781 L 656.003906 244.925781 L 656.003906 268.355469 L 649.898438 268.355469 C 649.347656 268.355469 648.882812 268.546875 648.488281 268.925781 C 648.109375 269.300781 647.914062 269.761719 647.914062 270.292969 C 647.914062 270.847656 648.109375 271.324219 648.488281 271.722656 C 648.882812 272.125 649.347656 272.328125 649.898438 272.328125 L 665.929688 272.328125 C 666.480469 272.328125 666.949219 272.132812 667.339844 271.746094 C 667.71875 271.359375 667.917969 270.894531 667.917969 270.34375 L 667.917969 260.078125 C 667.917969 259.527344 667.71875 259.0625 667.339844 258.675781 C 666.949219 258.28125 666.480469 258.09375 665.929688 258.09375 C 665.378906 258.09375 664.914062 258.289062 664.527344 258.679688 Z M 634.792969 244.925781 L 622.6875 244.925781 L 622.6875 268.355469 L 634.792969 268.355469 Z M 634.886719 272.328125 L 622.542969 272.328125 C 621.472656 272.328125 620.570312 271.953125 619.824219 271.203125 C 619.082031 270.457031 618.714844 269.550781 618.714844 268.496094 L 618.714844 244.730469 C 618.714844 243.695312 619.089844 242.796875 619.847656 242.035156 C 620.605469 241.285156 621.503906 240.90625 622.542969 240.90625 L 634.929688 240.90625 C 635.957031 240.90625 636.847656 241.285156 637.59375 242.035156 C 638.347656 242.796875 638.71875 243.695312 638.71875 244.730469 L 638.71875 268.496094 C 638.71875 269.550781 638.347656 270.457031 637.59375 271.203125 C 636.847656 271.953125 635.941406 272.328125 634.886719 272.328125 Z M 608.84375 271.746094 C 609.230469 271.359375 609.421875 270.894531 609.421875 270.34375 L 609.421875 260.078125 C 609.421875 259.527344 609.230469 259.0625 608.84375 258.675781 C 608.460938 258.28125 607.992188 258.09375 607.433594 258.09375 C 606.882812 258.09375 606.417969 258.289062 606.03125 258.679688 C 605.644531 259.078125 605.449219 259.546875 605.449219 260.078125 L 605.449219 268.355469 L 601.476562 268.355469 L 601.476562 240.949219 L 591.5 240.949219 C 590.949219 240.949219 590.480469 241.144531 590.09375 241.53125 C 589.707031 241.917969 589.511719 242.382812 589.511719 242.941406 C 589.511719 243.492188 589.707031 243.960938 590.09375 244.34375 C 590.480469 244.730469 590.949219 244.925781 591.5 244.925781 L 597.507812 244.925781 L 597.507812 268.355469 L 591.402344 268.355469 C 590.851562 268.355469 590.386719 268.546875 590 268.925781 C 589.613281 269.300781 589.417969 269.761719 589.417969 270.292969 C 589.417969 270.847656 589.613281 271.324219 590 271.722656 C 590.386719 272.125 590.851562 272.328125 591.402344 272.328125 L 607.433594 272.328125 C 607.992188 272.328125 608.460938 272.132812 608.84375 271.746094 Z M 576.296875 244.925781 L 564.191406 244.925781 L 564.191406 268.355469 L 576.296875 268.355469 Z M 576.441406 240.90625 C 577.464844 240.90625 578.351562 241.285156 579.097656 242.035156 C 579.851562 242.796875 580.222656 243.695312 580.222656 244.730469 L 580.222656 268.496094 C 580.222656 269.550781 579.851562 270.457031 579.097656 271.203125 C 578.351562 271.953125 577.445312 272.328125 576.390625 272.328125 L 564.050781 272.328125 C 562.976562 272.328125 562.074219 271.953125 561.332031 271.203125 C 560.585938 270.457031 560.21875 269.550781 560.21875 268.496094 L 560.21875 244.730469 C 560.21875 243.695312 560.601562 242.796875 561.351562 242.035156 C 562.109375 241.285156 563.007812 240.90625 564.050781 240.90625 Z M 532.914062 268.355469 C 532.363281 268.355469 531.890625 268.546875 531.503906 268.925781 C 531.117188 269.300781 530.929688 269.761719 530.929688 270.292969 C 530.929688 270.847656 531.117188 271.324219 531.503906 271.722656 C 531.890625 272.125 532.363281 272.328125 532.914062 272.328125 L 548.9375 272.328125 C 549.496094 272.328125 549.964844 272.132812 550.347656 271.746094 C 550.734375 271.359375 550.929688 270.894531 550.929688 270.34375 L 550.929688 260.078125 C 550.929688 259.527344 550.734375 259.0625 550.347656 258.675781 C 549.964844 258.28125 549.496094 258.09375 548.9375 258.09375 C 548.386719 258.09375 547.921875 258.289062 547.535156 258.679688 C 547.148438 259.078125 546.953125 259.546875 546.953125 260.078125 L 546.953125 268.355469 L 542.980469 268.355469 L 542.980469 240.949219 L 533.003906 240.949219 C 532.453125 240.949219 531.984375 241.144531 531.597656 241.53125 C 531.210938 241.917969 531.023438 242.382812 531.023438 242.941406 C 531.023438 243.492188 531.210938 243.960938 531.597656 244.34375 C 531.984375 244.730469 532.453125 244.925781 533.003906 244.925781 L 539.011719 244.925781 L 539.011719 268.355469 Z M 518.285156 258.679688 C 517.902344 259.078125 517.710938 259.546875 517.710938 260.078125 L 517.710938 268.355469 L 513.734375 268.355469 L 513.734375 240.949219 L 503.761719 240.949219 C 503.203125 240.949219 502.734375 241.144531 502.355469 241.53125 C 501.964844 241.917969 501.773438 242.382812 501.773438 242.941406 C 501.773438 243.492188 501.964844 243.960938 502.355469 244.34375 C 502.734375 244.730469 503.203125 244.925781 503.761719 244.925781 L 509.769531 244.925781 L 509.769531 268.355469 L 503.664062 268.355469 C 503.117188 268.355469 502.640625 268.546875 502.253906 268.925781 C 501.875 269.300781 501.679688 269.761719 501.679688 270.292969 C 501.679688 270.847656 501.875 271.324219 502.253906 271.722656 C 502.640625 272.125 503.117188 272.328125 503.664062 272.328125 L 519.695312 272.328125 C 520.246094 272.328125 520.714844 272.132812 521.101562 271.746094 C 521.488281 271.359375 521.683594 270.894531 521.683594 270.34375 L 521.683594 260.078125 C 521.683594 259.527344 521.488281 259.0625 521.101562 258.675781 C 520.714844 258.28125 520.246094 258.09375 519.695312 258.09375 C 519.148438 258.09375 518.671875 258.289062 518.285156 258.679688 Z M 488.558594 244.925781 L 476.453125 244.925781 L 476.453125 268.355469 L 488.558594 268.355469 Z M 488.695312 240.90625 C 489.722656 240.90625 490.605469 241.285156 491.359375 242.035156 C 492.105469 242.796875 492.480469 243.695312 492.480469 244.730469 L 492.480469 268.496094 C 492.480469 269.550781 492.105469 270.457031 491.359375 271.203125 C 490.605469 271.953125 489.707031 272.328125 488.652344 272.328125 L 476.308594 272.328125 C 475.238281 272.328125 474.328125 271.953125 473.589844 271.203125 C 472.847656 270.457031 472.476562 269.550781 472.476562 268.496094 L 472.476562 244.730469 C 472.476562 243.695312 472.855469 242.796875 473.613281 242.035156 C 474.367188 241.285156 475.265625 240.90625 476.308594 240.90625 Z M 562.902344 227.144531 L 575.003906 227.144531 L 575.003906 203.714844 L 562.902344 203.714844 Z M 560.035156 229.996094 C 559.296875 229.25 558.929688 228.34375 558.929688 227.289062 L 558.929688 203.523438 C 558.929688 202.488281 559.308594 201.589844 560.0625 200.828125 C 560.820312 200.078125 561.71875 199.699219 562.757812 199.699219 L 575.152344 199.699219 C 576.167969 199.699219 577.0625 200.078125 577.808594 200.828125 C 578.554688 201.589844 578.933594 202.488281 578.933594 203.523438 L 578.933594 227.289062 C 578.933594 228.34375 578.554688 229.25 577.808594 229.996094 C 577.0625 230.75 576.15625 231.121094 575.101562 231.121094 L 562.757812 231.121094 C 561.6875 231.121094 560.78125 230.75 560.035156 229.996094 Z M 531.625 227.144531 C 531.066406 227.144531 530.597656 227.339844 530.214844 227.71875 C 529.828125 228.09375 529.632812 228.546875 529.632812 229.085938 C 529.632812 229.636719 529.828125 230.117188 530.214844 230.515625 C 530.597656 230.917969 531.066406 231.121094 531.625 231.121094 L 547.648438 231.121094 C 548.199219 231.121094 548.671875 230.925781 549.058594 230.539062 C 549.445312 230.152344 549.640625 229.6875 549.640625 229.136719 L 549.640625 218.871094 C 549.640625 218.320312 549.445312 217.855469 549.058594 217.46875 C 548.671875 217.078125 548.199219 216.886719 547.648438 216.886719 C 547.097656 216.886719 546.628906 217.082031 546.246094 217.472656 C 545.859375 217.871094 545.664062 218.335938 545.664062 218.871094 L 545.664062 227.144531 L 541.691406 227.144531 L 541.691406 201.375 L 554.8125 201.375 C 555.953125 201.375 556.882812 200.449219 556.882812 199.304688 L 556.882812 196.777344 L 538.308594 196.777344 L 538.308594 199.304688 C 538.308594 199.457031 538.371094 199.597656 538.402344 199.742188 L 531.710938 199.742188 C 531.160156 199.742188 530.695312 199.9375 530.308594 200.324219 C 529.921875 200.710938 529.734375 201.183594 529.734375 201.734375 C 529.734375 202.285156 529.921875 202.753906 530.308594 203.136719 C 530.695312 203.523438 531.160156 203.714844 531.710938 203.714844 L 537.71875 203.714844 L 537.71875 227.144531 Z M 504.40625 227.144531 L 516.515625 227.144531 L 516.515625 203.714844 L 504.40625 203.714844 Z M 501.546875 229.996094 C 500.808594 229.25 500.433594 228.34375 500.433594 227.289062 L 500.433594 203.523438 C 500.433594 202.488281 500.8125 201.589844 501.574219 200.828125 C 502.324219 200.078125 503.222656 199.699219 504.265625 199.699219 L 516.65625 199.699219 C 517.679688 199.699219 518.566406 200.078125 519.3125 200.828125 C 520.0625 201.589844 520.4375 202.488281 520.4375 203.523438 L 520.4375 227.289062 C 520.4375 228.34375 520.0625 229.25 519.3125 229.996094 C 518.566406 230.75 517.667969 231.121094 516.605469 231.121094 L 504.265625 231.121094 C 503.191406 231.121094 502.285156 230.75 501.546875 229.996094 Z M 475.164062 227.144531 L 487.261719 227.144531 L 487.261719 203.714844 L 475.164062 203.714844 Z M 472.300781 229.996094 C 471.558594 229.25 471.1875 228.34375 471.1875 227.289062 L 471.1875 203.523438 C 471.1875 202.488281 471.566406 201.589844 472.324219 200.828125 C 473.078125 200.078125 473.976562 199.699219 475.019531 199.699219 L 487.40625 199.699219 C 488.429688 199.699219 489.316406 200.078125 490.070312 200.828125 C 490.816406 201.589844 491.1875 202.488281 491.1875 203.523438 L 491.1875 227.289062 C 491.1875 228.34375 490.816406 229.25 490.070312 229.996094 C 489.316406 230.75 488.417969 231.121094 487.363281 231.121094 L 475.019531 231.121094 C 473.949219 231.121094 473.039062 230.75 472.300781 229.996094 Z M 445.914062 227.144531 L 458.019531 227.144531 L 458.019531 203.714844 L 445.914062 203.714844 Z M 441.9375 203.523438 C 441.9375 202.488281 442.316406 201.589844 443.078125 200.828125 C 443.828125 200.078125 444.726562 199.699219 445.769531 199.699219 L 458.160156 199.699219 C 459.183594 199.699219 460.070312 200.078125 460.820312 200.828125 C 461.566406 201.589844 461.945312 202.488281 461.945312 203.523438 L 461.945312 227.289062 C 461.945312 228.34375 461.566406 229.25 460.820312 229.996094 C 460.070312 230.75 459.171875 231.121094 458.113281 231.121094 L 445.769531 231.121094 C 444.703125 231.121094 443.796875 230.75 443.050781 229.996094 C 442.3125 229.25 441.9375 228.34375 441.9375 227.289062 Z M 428.675781 227.144531 L 424.707031 227.144531 L 424.707031 199.742188 L 414.726562 199.742188 C 414.175781 199.742188 413.707031 199.9375 413.320312 200.324219 C 412.9375 200.710938 412.742188 201.183594 412.742188 201.734375 C 412.742188 202.285156 412.9375 202.753906 413.320312 203.136719 C 413.707031 203.523438 414.175781 203.714844 414.726562 203.714844 L 420.734375 203.714844 L 420.734375 227.144531 L 414.632812 227.144531 C 414.082031 227.144531 413.613281 227.339844 413.226562 227.71875 C 412.839844 228.09375 412.644531 228.546875 412.644531 229.085938 C 412.644531 229.636719 412.839844 230.117188 413.226562 230.515625 C 413.613281 230.917969 414.082031 231.121094 414.632812 231.121094 L 430.664062 231.121094 C 431.210938 231.121094 431.679688 230.925781 432.066406 230.539062 C 432.457031 230.152344 432.648438 229.6875 432.648438 229.136719 L 432.648438 218.871094 C 432.648438 218.320312 432.457031 217.855469 432.066406 217.46875 C 431.679688 217.078125 431.210938 216.886719 430.664062 216.886719 C 430.113281 216.886719 429.644531 217.082031 429.257812 217.472656 C 428.867188 217.871094 428.675781 218.335938 428.675781 218.871094 Z M 385.382812 227.144531 C 384.832031 227.144531 384.363281 227.339844 383.980469 227.71875 C 383.59375 228.09375 383.398438 228.546875 383.398438 229.085938 C 383.398438 229.636719 383.59375 230.117188 383.980469 230.515625 C 384.363281 230.917969 384.832031 231.121094 385.382812 231.121094 L 401.414062 231.121094 C 401.964844 231.121094 402.433594 230.925781 402.824219 230.539062 C 403.210938 230.152344 403.398438 229.6875 403.398438 229.136719 L 403.398438 218.871094 C 403.398438 218.320312 403.210938 217.855469 402.824219 217.46875 C 402.433594 217.078125 401.964844 216.886719 401.414062 216.886719 C 400.863281 216.886719 400.394531 217.082031 400.011719 217.472656 C 399.625 217.871094 399.429688 218.335938 399.429688 218.871094 L 399.429688 227.144531 L 395.457031 227.144531 L 395.457031 199.742188 L 385.476562 199.742188 C 384.929688 199.742188 384.460938 199.9375 384.074219 200.324219 C 383.6875 200.710938 383.492188 201.183594 383.492188 201.734375 C 383.492188 202.285156 383.6875 202.753906 384.074219 203.136719 C 384.460938 203.523438 384.929688 203.714844 385.476562 203.714844 L 391.484375 203.714844 L 391.484375 227.144531 Z M 354.199219 214.3125 L 354.199219 227.289062 C 354.199219 228.34375 354.566406 229.25 355.3125 229.996094 C 356.054688 230.75 356.957031 231.121094 358.027344 231.121094 L 370.371094 231.121094 C 371.425781 231.121094 372.332031 230.75 373.078125 229.996094 C 373.828125 229.25 374.203125 228.34375 374.203125 227.289062 L 374.203125 203.523438 C 374.203125 202.488281 373.828125 201.589844 373.078125 200.828125 C 372.835938 200.582031 372.570312 200.394531 372.292969 200.222656 C 370.710938 201.367188 369.144531 202.539062 367.570312 203.714844 L 370.273438 203.714844 L 370.273438 227.144531 L 358.171875 227.144531 L 358.171875 211.054688 C 356.851562 212.125 355.523438 213.210938 354.199219 214.3125 Z M 75.851562 297.261719 L 82.804688 297.261719 L 82.804688 285.507812 L 83.890625 285.507812 L 83.890625 297.261719 L 90.132812 297.261719 C 92.0625 297.261719 93.667969 296.714844 94.914062 295.625 C 96.195312 294.5 96.875 292.949219 96.875 291.148438 C 96.875 289.738281 96.449219 288.535156 95.648438 287.625 C 96.414062 286.5625 96.613281 285.449219 96.613281 284.570312 C 96.613281 282.851562 95.949219 281.347656 94.699219 280.226562 C 93.457031 279.121094 91.636719 278.582031 89.128906 278.582031 L 73.496094 278.582031 L 73.496094 285.507812 L 75.851562 285.507812 Z M 65.9375 285.222656 L 63.996094 285.222656 L 63.996094 278.582031 L 72.679688 278.582031 L 72.679688 297.261719 L 65.9375 297.261719 L 65.9375 285.222656 " fill-opacity="1" fill-rule="nonzero"/><path fill="#784f5e" d="M 427.753906 407.496094 L 427.753906 427.382812 L 437.371094 434.859375 C 437.371094 434.859375 404.460938 471.074219 392.566406 471.074219 C 380.746094 471.074219 348.394531 437.722656 348.394531 437.722656 L 359.347656 429.820312 L 359.347656 409.742188 C 354.625 404.863281 351.644531 398.375 351.289062 390.261719 L 350.417969 368.945312 C 344.042969 369.527344 333.785156 351.207031 339.28125 342.566406 C 342.394531 337.679688 346.363281 340.96875 349.445312 345.210938 L 348.335938 318.050781 C 347.914062 308.570312 355.488281 300.660156 364.976562 300.660156 L 420.171875 300.660156 C 429.65625 300.660156 437.226562 308.570312 436.808594 318.050781 L 435.40625 352.355469 C 437.5 346.601562 442.398438 335.472656 446.914062 342.566406 C 452.71875 351.691406 440.9375 371.640625 434.742188 368.660156 L 433.855469 390.261719 C 433.550781 397.1875 431.328125 402.921875 427.753906 407.496094 Z M 241.9375 625.03125 L 187.367188 593.46875 L 163.703125 627.6875 L 163.65625 627.679688 L 154.359375 641.441406 C 145.316406 654.835938 159.304688 684.796875 175.386719 686.460938 L 319.40625 690.128906 L 320.171875 682.699219 L 278.390625 682.699219 L 277.054688 668.867188 C 276.566406 666.699219 277.992188 664.585938 279.933594 664.585938 L 322.042969 664.585938 L 324.140625 644.242188 L 234.578125 635.003906 Z M 571.140625 687.757812 L 487.816406 677.570312 L 488.894531 667.574219 C 489.226562 666.0625 488.242188 664.585938 486.882812 664.585938 L 428.390625 664.585938 L 430.183594 624.183594 L 517.933594 628.078125 L 513.808594 620.464844 L 577.128906 599.558594 L 596.988281 643.078125 L 598.535156 646.3125 C 605.523438 660.886719 587.285156 688.472656 571.140625 687.757812 " fill-opacity="1" fill-rule="nonzero"/><g clip-path="url(#6e678e01d2)"><path fill="#141f35" d="M 114.550781 632.96875 L 114.550781 638.25 C 114.550781 639.195312 115.320312 639.96875 116.269531 639.96875 C 117.21875 639.96875 117.988281 639.195312 117.988281 638.25 L 117.988281 632.96875 C 117.988281 632.019531 117.21875 631.246094 116.269531 631.246094 C 115.320312 631.246094 114.550781 632.019531 114.550781 632.96875 Z M 109.722656 638.25 L 109.722656 632.96875 C 109.722656 632.019531 108.953125 631.246094 107.996094 631.246094 C 107.050781 631.246094 106.277344 632.019531 106.277344 632.96875 L 106.277344 638.25 C 106.277344 639.195312 107.050781 639.96875 107.996094 639.96875 C 108.953125 639.96875 109.722656 639.195312 109.722656 638.25 Z M 101.457031 638.25 L 101.457031 632.96875 C 101.457031 632.019531 100.6875 631.246094 99.738281 631.246094 C 98.785156 631.246094 98.011719 632.019531 98.011719 632.96875 L 98.011719 638.25 C 98.011719 639.195312 98.785156 639.96875 99.738281 639.96875 C 100.6875 639.96875 101.457031 639.195312 101.457031 638.25 Z M 93.1875 638.25 L 93.1875 632.96875 C 93.1875 632.019531 92.414062 631.246094 91.46875 631.246094 C 90.511719 631.246094 89.746094 632.019531 89.746094 632.96875 L 89.746094 638.25 C 89.746094 639.195312 90.511719 639.96875 91.46875 639.96875 C 92.414062 639.96875 93.1875 639.195312 93.1875 638.25 Z M 84.921875 638.25 L 84.921875 632.96875 C 84.921875 632.019531 84.15625 631.246094 83.203125 631.246094 C 82.253906 631.246094 81.480469 632.019531 81.480469 632.96875 L 81.480469 638.25 C 81.480469 639.195312 82.253906 639.96875 83.203125 639.96875 C 84.15625 639.96875 84.921875 639.195312 84.921875 638.25 Z M 76.65625 638.25 L 76.65625 632.96875 C 76.65625 632.019531 75.886719 631.246094 74.929688 631.246094 C 73.980469 631.246094 73.210938 632.019531 73.210938 632.96875 L 73.210938 638.25 C 73.210938 639.195312 73.980469 639.96875 74.929688 639.96875 C 75.886719 639.96875 76.65625 639.195312 76.65625 638.25 Z M 68.390625 638.25 L 68.390625 632.96875 C 68.390625 632.019531 67.621094 631.246094 66.671875 631.246094 C 65.714844 631.246094 64.945312 632.019531 64.945312 632.96875 L 64.945312 638.25 C 64.945312 639.195312 65.714844 639.96875 66.671875 639.96875 C 67.621094 639.96875 68.390625 639.195312 68.390625 638.25 Z M 60.121094 632.96875 C 60.121094 632.019531 59.347656 631.246094 58.398438 631.246094 C 57.449219 631.246094 56.679688 632.019531 56.679688 632.96875 L 56.679688 638.25 C 56.679688 639.195312 57.449219 639.96875 58.398438 639.96875 C 59.347656 639.96875 60.121094 639.195312 60.121094 638.25 Z M 61.316406 648.132812 L 111.417969 648.132812 C 112.375 648.132812 113.144531 647.359375 113.144531 646.414062 C 113.144531 645.457031 112.375 644.6875 111.417969 644.6875 L 61.316406 644.6875 C 60.359375 644.6875 59.59375 645.457031 59.59375 646.414062 C 59.59375 647.359375 60.359375 648.132812 61.316406 648.132812 Z M 415.777344 340.429688 C 412.644531 340.410156 409.578125 341.203125 407.117188 342.808594 C 406.320312 343.332031 406.101562 344.402344 406.617188 345.199219 C 407.136719 345.988281 408.207031 346.214844 409.003906 345.691406 C 410.855469 344.476562 413.296875 343.789062 415.699219 343.871094 C 418.101562 343.925781 420.5 344.699219 422.285156 345.996094 C 422.585938 346.214844 422.941406 346.324219 423.289062 346.324219 C 423.828125 346.324219 424.34375 346.078125 424.6875 345.617188 C 425.242188 344.84375 425.070312 343.769531 424.308594 343.210938 C 421.933594 341.488281 418.90625 340.5 415.777344 340.429688 Z M 372.945312 340.789062 C 369.8125 340.601562 366.707031 341.359375 364.160156 342.878906 C 363.34375 343.363281 363.078125 344.421875 363.566406 345.238281 C 364.046875 346.050781 365.101562 346.316406 365.925781 345.835938 C 367.859375 344.679688 370.339844 344.109375 372.746094 344.230469 C 375.132812 344.363281 377.472656 345.21875 379.167969 346.566406 C 379.484375 346.816406 379.863281 346.9375 380.234375 346.9375 C 380.742188 346.9375 381.242188 346.714844 381.582031 346.292969 C 382.175781 345.546875 382.050781 344.464844 381.3125 343.871094 C 379.039062 342.0625 376.066406 340.96875 372.945312 340.789062 Z M 378.054688 399.445312 C 377.902344 400.382812 378.535156 401.265625 379.46875 401.425781 C 379.898438 401.492188 386.730469 402.601562 394.4375 402.601562 C 398.453125 402.601562 402.710938 402.296875 406.421875 401.398438 C 407.347656 401.171875 407.914062 400.242188 407.6875 399.320312 C 407.464844 398.394531 406.53125 397.820312 405.613281 398.054688 C 395.457031 400.519531 380.183594 398.054688 380.03125 398.027344 C 379.078125 397.859375 378.207031 398.507812 378.054688 399.445312 Z M 195.996094 574.800781 C 196.375 574.976562 234.199219 592.117188 245.269531 603.851562 C 245.605469 604.207031 246.0625 604.390625 246.515625 604.390625 C 246.941406 604.390625 247.371094 604.238281 247.707031 603.921875 C 248.394531 603.269531 248.425781 602.183594 247.773438 601.488281 C 236.246094 589.261719 198.992188 572.378906 197.410156 571.664062 C 196.539062 571.273438 195.527344 571.664062 195.132812 572.523438 C 194.742188 573.390625 195.128906 574.414062 195.996094 574.800781 Z M 510.179688 606.9375 C 510.597656 606.9375 511.019531 606.785156 511.355469 606.476562 C 529.878906 589.1875 567.910156 581.195312 568.289062 581.113281 C 569.21875 580.921875 569.820312 580.011719 569.628906 579.082031 C 569.441406 578.144531 568.523438 577.550781 567.59375 577.742188 C 566 578.070312 528.242188 586 509.003906 603.960938 C 508.308594 604.605469 508.269531 605.699219 508.921875 606.394531 C 509.257812 606.753906 509.71875 606.9375 510.179688 606.9375 Z M 434.664062 329.507812 C 434.835938 325.90625 431.472656 323.171875 427.980469 324.070312 L 395.394531 332.492188 C 395.394531 332.492188 374.492188 327.398438 360.902344 324.132812 C 355.671875 322.882812 350.664062 326.871094 350.710938 332.246094 L 350.828125 346.78125 L 351.921875 349.519531 C 352.632812 348.53125 353.789062 347.886719 355.097656 347.886719 L 386.003906 347.886719 C 388.152344 347.886719 389.90625 349.636719 389.90625 351.789062 L 389.90625 351.992188 L 398.519531 351.992188 L 398.519531 351.402344 C 398.519531 349.46875 400.09375 347.886719 402.027344 347.886719 L 433.71875 347.886719 C 433.75 347.886719 433.773438 347.898438 433.804688 347.898438 Z M 433.785156 357.417969 C 433.75 357.5625 433.703125 357.714844 433.671875 357.851562 L 433.332031 358.023438 L 433.640625 351.402344 L 402.027344 351.332031 L 401.964844 370.457031 L 433.71875 370.519531 L 433.785156 370.457031 Z M 386.457031 351.789062 C 386.457031 351.542969 386.257812 351.332031 386.003906 351.332031 L 355.097656 351.332031 C 354.839844 351.332031 354.636719 351.542969 354.636719 351.789062 L 354.636719 370.0625 C 354.636719 370.316406 354.839844 370.519531 355.097656 370.519531 L 386.003906 370.519531 C 386.257812 370.519531 386.457031 370.316406 386.457031 370.0625 Z M 443.398438 284.261719 C 450.808594 296.136719 451.671875 315.40625 445.050781 340.640625 C 444.355469 340.246094 443.65625 340.214844 442.96875 340.4375 L 437.226562 354.835938 L 437.226562 370.457031 C 437.226562 372.390625 435.652344 373.964844 433.71875 373.964844 L 402.027344 373.964844 C 400.09375 373.964844 398.519531 372.390625 398.519531 370.457031 L 398.519531 355.429688 L 389.90625 355.429688 L 389.90625 370.0625 C 389.90625 372.214844 388.152344 373.964844 386.003906 373.964844 L 355.097656 373.964844 C 352.949219 373.964844 351.195312 372.214844 351.195312 370.0625 L 351.195312 355.992188 C 350.875 355.808594 350.609375 355.511719 350.460938 355.144531 L 344.664062 340.613281 C 343.46875 340.03125 342.265625 339.9375 341.128906 340.632812 C 336.519531 327.148438 332.324219 308.425781 337.71875 294.222656 C 356.84375 243.851562 415.730469 276.515625 415.730469 276.515625 C 415.730469 276.515625 434.703125 270.328125 443.398438 284.261719 Z M 685.988281 124.570312 C 685.464844 125.367188 685.6875 126.4375 686.484375 126.953125 C 686.773438 127.148438 687.101562 127.238281 687.425781 127.238281 C 687.988281 127.238281 688.539062 126.96875 688.867188 126.46875 C 715.902344 85.375 689.910156 57.402344 689.644531 57.125 C 688.988281 56.441406 687.898438 56.417969 687.210938 57.074219 C 686.519531 57.734375 686.503906 58.820312 687.160156 59.507812 C 687.40625 59.761719 711.53125 85.746094 685.988281 124.570312 Z M 674.921875 121.730469 C 675.214844 121.925781 675.542969 122.015625 675.867188 122.015625 C 676.429688 122.015625 676.980469 121.742188 677.308594 121.238281 C 698.511719 89.015625 678.078125 67.027344 677.871094 66.8125 C 677.210938 66.125 676.132812 66.097656 675.441406 66.757812 C 674.753906 67.410156 674.726562 68.503906 675.378906 69.191406 C 676.148438 70 694.085938 89.484375 674.429688 119.347656 C 673.90625 120.144531 674.125 121.210938 674.921875 121.730469 Z M 663.484375 112.289062 C 663.78125 112.484375 664.109375 112.574219 664.433594 112.574219 C 664.988281 112.574219 665.539062 112.300781 665.867188 111.796875 C 679.691406 90.800781 666.296875 76.394531 666.160156 76.253906 C 665.5 75.566406 664.417969 75.539062 663.738281 76.199219 C 663.046875 76.851562 663.023438 77.9375 663.667969 78.625 C 664.148438 79.132812 675.257812 91.269531 662.996094 109.90625 C 662.472656 110.703125 662.691406 111.769531 663.484375 112.289062 Z M 615.066406 128.445312 C 615.394531 128.445312 615.71875 128.359375 616.015625 128.160156 C 616.804688 127.644531 617.027344 126.574219 616.503906 125.777344 C 591.019531 87.050781 614.335938 61.773438 615.339844 60.710938 C 615.992188 60.023438 615.964844 58.933594 615.277344 58.28125 C 614.59375 57.625 613.503906 57.652344 612.847656 58.332031 C 612.582031 58.613281 586.589844 86.582031 613.625 127.675781 C 613.960938 128.175781 614.503906 128.445312 615.066406 128.445312 Z M 625.191406 122.445312 C 625.519531 122.949219 626.066406 123.222656 626.628906 123.222656 C 626.949219 123.222656 627.277344 123.128906 627.570312 122.9375 C 628.367188 122.414062 628.589844 121.351562 628.0625 120.554688 C 608.414062 90.691406 626.335938 71.214844 627.113281 70.398438 C 627.765625 69.710938 627.746094 68.621094 627.058594 67.964844 C 626.367188 67.308594 625.28125 67.332031 624.621094 68.023438 C 624.414062 68.238281 603.980469 90.226562 625.191406 122.445312 Z M 638.0625 113.78125 C 638.382812 113.78125 638.710938 113.691406 639.011719 113.496094 C 639.800781 112.972656 640.023438 111.910156 639.496094 111.113281 C 627.234375 92.476562 638.339844 80.351562 638.828125 79.839844 C 639.476562 79.152344 639.453125 78.0625 638.769531 77.40625 C 638.082031 76.75 636.992188 76.773438 636.335938 77.464844 C 636.195312 77.601562 622.808594 92.007812 636.625 113.003906 C 636.953125 113.507812 637.503906 113.78125 638.0625 113.78125 Z M 131.410156 622.550781 L 44.867188 622.550781 L 51.195312 628.933594 L 125.078125 628.933594 Z M 134.792969 523.628906 C 134.792969 518.871094 130.941406 515.019531 126.183594 515.019531 C 121.429688 515.019531 117.578125 518.871094 117.578125 523.628906 L 117.578125 552.40625 L 106.296875 552.40625 L 106.296875 506.9375 C 106.296875 500.464844 101.046875 495.207031 94.566406 495.207031 L 83.269531 495.207031 C 76.789062 495.207031 71.539062 500.464844 71.539062 506.9375 L 71.539062 571.109375 L 62.445312 571.109375 L 62.445312 542.320312 C 62.445312 537.566406 58.59375 533.714844 53.839844 533.714844 C 49.089844 533.714844 45.234375 537.566406 45.234375 542.320312 L 45.234375 571.777344 C 45.234375 580.902344 52.65625 588.320312 61.78125 588.320312 L 71.539062 588.320312 L 71.539062 613.710938 L 106.296875 613.710938 L 106.296875 569.628906 L 118.242188 569.628906 C 127.367188 569.628906 134.792969 562.203125 134.792969 553.078125 Z M 695.007812 619.09375 L 695.007812 653.703125 L 700.230469 653.703125 C 701.125 653.703125 701.921875 653.140625 702.21875 652.300781 L 707.144531 638.398438 C 709.167969 632.703125 709.476562 626.582031 708.042969 620.699219 C 707.8125 619.757812 706.972656 619.09375 706 619.09375 Z M 695.007812 610.488281 L 706 610.488281 C 710.949219 610.488281 715.230469 613.851562 716.40625 618.664062 C 718.234375 626.175781 717.835938 634 715.257812 641.285156 L 710.332031 655.175781 C 708.8125 659.445312 704.757812 662.3125 700.230469 662.3125 L 695.007812 662.3125 L 695.007812 681.046875 C 695.007812 684.445312 692.25 687.195312 688.859375 687.195312 L 638.347656 687.195312 C 634.949219 687.195312 632.199219 684.445312 632.199219 681.046875 L 632.199219 605.71875 L 695.007812 605.71875 Z M 411.679688 593.660156 C 411.679688 583.332031 401.792969 574.953125 389.601562 574.953125 C 377.410156 574.953125 367.523438 583.332031 367.523438 593.660156 C 367.523438 603.992188 377.410156 612.363281 389.601562 612.363281 C 401.792969 612.363281 411.679688 603.992188 411.679688 593.660156 Z M 489.777344 511.234375 C 490.503906 491.476562 497.867188 476.28125 498.203125 475.605469 C 498.617188 474.75 499.648438 474.394531 500.511719 474.8125 C 501.355469 475.238281 501.710938 476.269531 501.292969 477.121094 C 501.210938 477.28125 493.976562 492.253906 493.226562 511.234375 L 499.699219 511.234375 C 504.214844 511.234375 507.839844 514.96875 507.6875 519.484375 L 502.933594 663.273438 C 502.792969 667.585938 499.257812 671 494.945312 671 L 277.742188 671 C 273.429688 671 269.902344 667.585938 269.757812 663.273438 L 265 519.484375 C 264.855469 514.96875 268.472656 511.234375 272.996094 511.234375 L 284.960938 511.234375 C 285.410156 502.09375 279.128906 488.289062 279.066406 488.152344 C 278.667969 487.285156 279.039062 486.265625 279.90625 485.867188 C 280.773438 485.46875 281.792969 485.847656 282.191406 486.707031 C 282.46875 487.320312 288.804688 501.246094 288.40625 511.234375 L 383.769531 511.234375 L 383.339844 480.207031 C 383.296875 477.160156 384.933594 474.339844 387.609375 472.867188 L 390.5625 471.242188 L 371.679688 462.128906 C 368.1875 460.355469 365.128906 458.441406 362.515625 461.066406 L 353.5625 470.058594 C 351.886719 471.738281 349.015625 470.589844 348.964844 468.210938 L 348.34375 438.035156 C 347.710938 432.757812 359.347656 409.910156 359.347656 409.910156 C 359.347656 409.910156 364.996094 447.195312 391.371094 470.792969 L 397.09375 467.640625 C 422.828125 446.804688 427.753906 407.558594 427.753906 407.558594 C 427.753906 407.558594 437.953125 429.585938 437.371094 434.859375 L 439.074219 461.90625 C 439.226562 464.304688 436.519531 465.800781 434.570312 464.398438 L 432.363281 462.816406 C 428.132812 459.769531 421.867188 459.066406 416.65625 461.039062 L 401.355469 467.292969 L 401.355469 511.234375 Z M 799.65625 687.582031 L 503.476562 687.582031 L 504.828125 676.628906 C 505.222656 675.117188 504.082031 673.644531 502.519531 673.644531 L 264.433594 673.644531 C 262.195312 673.644531 260.5625 675.753906 261.125 677.925781 L 262.195312 687.582031 L 113.265625 687.582031 L 115.484375 682.371094 L 58.671875 682.371094 L 60.898438 687.582031 L 10.402344 687.582031 C 4.804688 687.582031 0.269531 692.117188 0.269531 697.710938 L 0.269531 711.421875 C 0.269531 717.019531 4.804688 721.554688 10.402344 721.554688 L 67.5 721.554688 L 67.5 769.4375 L 740.355469 769.4375 L 740.355469 721.554688 L 799.65625 721.554688 C 805.246094 721.554688 809.78125 717.019531 809.78125 711.421875 L 809.78125 697.710938 C 809.78125 692.117188 805.246094 687.582031 799.65625 687.582031 Z M 398.636719 386.214844 C 402.371094 384.863281 397.019531 374.382812 394.269531 369.480469 C 393.667969 368.414062 392.195312 368.515625 391.75 369.648438 C 389.917969 374.394531 386.304688 383.96875 386.339844 385.855469 C 386.375 388.390625 393.757812 387.992188 398.636719 386.214844 Z M 374.113281 353.867188 C 372.351562 353.867188 370.921875 356.058594 370.921875 358.757812 C 370.921875 361.457031 372.351562 363.644531 374.113281 363.644531 C 375.878906 363.644531 377.308594 361.457031 377.308594 358.757812 C 377.308594 356.058594 375.878906 353.867188 374.113281 353.867188 Z M 414.257812 353.867188 C 412.492188 353.867188 411.058594 356.058594 411.058594 358.757812 C 411.058594 361.457031 412.492188 363.644531 414.257812 363.644531 C 416.015625 363.644531 417.445312 361.457031 417.445312 358.757812 C 417.445312 356.058594 416.015625 353.867188 414.257812 353.867188 Z M 391.308594 442.164062 C 397.335938 443.996094 422.523438 418.6875 427.296875 408.089844 C 420.601562 416.203125 409.445312 420.390625 396.847656 420.390625 L 388.296875 420.390625 C 377.3125 420.390625 367.429688 417.207031 360.632812 411.019531 C 369.148438 421.007812 386.355469 440.644531 391.308594 442.164062 Z M 355.78125 405.257812 C 355.78125 405.257812 355.820312 405.308594 355.886719 405.390625 C 355.855469 405.34375 355.839844 405.300781 355.804688 405.257812 Z M 604.949219 174.382812 C 604.949219 176.917969 607.003906 178.976562 609.539062 178.976562 C 612.078125 178.976562 614.132812 176.917969 614.132812 174.382812 C 614.132812 171.847656 612.078125 169.792969 609.539062 169.792969 C 607.003906 169.792969 604.949219 171.847656 604.949219 174.382812 Z M 622.859375 174.382812 C 622.859375 176.917969 624.921875 178.976562 627.449219 178.976562 C 629.992188 178.976562 632.046875 176.917969 632.046875 174.382812 C 632.046875 171.847656 629.992188 169.792969 627.449219 169.792969 C 624.921875 169.792969 622.859375 171.847656 622.859375 174.382812 Z M 641.066406 174.382812 C 641.066406 176.917969 643.125 178.976562 645.664062 178.976562 C 648.199219 178.976562 650.253906 176.917969 650.253906 174.382812 C 650.253906 171.847656 648.199219 169.792969 645.664062 169.792969 C 643.125 169.792969 641.066406 171.847656 641.066406 174.382812 Z M 557.828125 174.382812 C 557.828125 171.847656 555.773438 169.792969 553.238281 169.792969 C 550.703125 169.792969 548.648438 171.847656 548.648438 174.382812 C 548.648438 176.917969 550.703125 178.976562 553.238281 178.976562 C 555.773438 178.976562 557.828125 176.917969 557.828125 174.382812 Z M 530.566406 187.050781 L 526.171875 187.050781 L 526.171875 160.472656 L 530.566406 160.472656 L 530.566406 154.058594 C 530.566406 152.914062 531.496094 151.992188 532.636719 151.992188 L 557.097656 151.992188 L 602.394531 140.691406 C 603.976562 140.292969 605.582031 141.253906 605.972656 142.832031 L 606.734375 145.863281 C 607.125 147.445312 606.164062 149.042969 604.582031 149.441406 L 594.363281 151.992188 L 645.746094 151.992188 L 645.746094 90.964844 C 645.746094 89.332031 647.066406 88.011719 648.691406 88.011719 L 651.816406 88.011719 C 653.449219 88.011719 654.769531 89.332031 654.769531 90.964844 L 654.769531 151.992188 L 670.824219 151.992188 C 671.964844 151.992188 672.894531 152.914062 672.894531 154.058594 L 672.894531 160.472656 L 676.960938 160.472656 L 676.960938 187.050781 L 672.894531 187.050781 L 672.894531 194.707031 C 672.894531 195.851562 671.964844 196.777344 670.824219 196.777344 L 532.636719 196.777344 C 531.496094 196.777344 530.566406 195.851562 530.566406 194.707031 Z M 270.605469 189.960938 L 427.011719 189.960938 L 427.011719 97.59375 L 270.605469 97.59375 Z M 431.09375 143.777344 C 431.09375 146.449219 433.269531 148.625 435.941406 148.625 C 438.617188 148.625 440.792969 146.449219 440.792969 143.777344 C 440.792969 141.101562 438.617188 138.933594 435.941406 138.933594 C 433.269531 138.933594 431.09375 141.101562 431.09375 143.777344 Z M 251.042969 189.984375 L 251.042969 97.566406 C 251.042969 92.21875 255.382812 87.886719 260.734375 87.886719 L 436.972656 87.886719 C 442.324219 87.886719 446.65625 92.21875 446.65625 97.566406 L 446.65625 189.984375 C 446.65625 195.335938 442.324219 199.667969 436.972656 199.667969 L 260.734375 199.667969 C 255.382812 199.667969 251.042969 195.335938 251.042969 189.984375 Z M 22.574219 307.191406 L 22.574219 310.113281 L 25.496094 310.113281 L 25.496094 307.191406 Z M 30.972656 307.191406 L 30.972656 310.113281 L 33.894531 310.113281 L 33.894531 307.191406 Z M 95.152344 291.148438 C 95.152344 289.503906 94.414062 288.390625 92.925781 287.804688 C 94.238281 286.988281 94.894531 285.910156 94.894531 284.570312 C 94.894531 283.332031 94.445312 282.3125 93.546875 281.503906 C 92.648438 280.699219 91.175781 280.300781 89.128906 280.300781 L 85.617188 280.300781 L 85.617188 295.542969 L 90.132812 295.542969 C 91.644531 295.542969 92.859375 295.136719 93.773438 294.328125 C 94.699219 293.527344 95.152344 292.464844 95.152344 291.148438 Z M 83.46875 280.300781 L 75.214844 280.300781 L 75.214844 283.78125 L 77.578125 283.78125 L 77.578125 295.542969 L 81.082031 295.542969 L 81.082031 283.78125 L 83.46875 283.78125 Z M 70.953125 280.300781 L 65.714844 280.300781 L 65.714844 283.503906 L 67.65625 283.503906 L 67.65625 295.542969 L 70.953125 295.542969 Z M 141.171875 394.808594 L 127.265625 394.808594 C 127.429688 395.074219 127.550781 395.367188 127.550781 395.703125 L 127.550781 417.316406 C 127.550781 422.585938 125.484375 427.511719 121.734375 431.191406 C 118.066406 434.800781 113.238281 436.773438 108.113281 436.773438 C 107.992188 436.773438 107.878906 436.769531 107.757812 436.769531 L 46.390625 435.707031 C 36.019531 435.527344 27.628906 427.265625 27.285156 416.894531 L 26.835938 340.390625 L 20.621094 340.390625 C 19.539062 340.390625 18.660156 339.511719 18.660156 338.433594 L 18.660156 315.90625 L 27.632812 315.90625 L 27.632812 307.191406 L 29.304688 307.191406 L 29.304688 315.90625 L 38.277344 315.90625 L 38.277344 338.433594 C 38.277344 339.511719 37.398438 340.390625 36.324219 340.390625 L 30.277344 340.390625 L 30.726562 416.824219 C 31.003906 425.316406 37.910156 432.113281 46.445312 432.261719 L 107.820312 433.328125 C 112.121094 433.386719 116.230469 431.773438 119.316406 428.738281 C 122.402344 425.703125 124.105469 421.648438 124.105469 417.316406 L 124.105469 395.703125 C 124.105469 395.367188 124.230469 395.074219 124.390625 394.808594 L 60.484375 394.808594 C 57.179688 394.808594 54.492188 392.128906 54.492188 388.816406 L 54.492188 278.367188 C 54.492188 275.058594 57.179688 272.371094 60.484375 272.371094 L 141.171875 272.371094 C 144.488281 272.371094 147.167969 275.058594 147.167969 278.367188 L 147.167969 388.816406 C 147.167969 392.128906 144.488281 394.808594 141.171875 394.808594 Z M 89.359375 289.277344 L 89.070312 289.277344 L 89.070312 292.578125 C 89.949219 292.558594 90.601562 292.425781 91.042969 292.167969 C 91.480469 291.914062 91.695312 291.496094 91.695312 290.90625 C 91.695312 289.820312 90.917969 289.277344 89.359375 289.277344 Z M 91.390625 284.90625 C 91.390625 284.285156 91.203125 283.855469 90.835938 283.617188 C 90.46875 283.371094 89.878906 283.242188 89.070312 283.222656 L 89.070312 286.511719 C 90.613281 286.476562 91.390625 285.9375 91.390625 284.90625 Z M 32.839844 196.195312 C 34.039062 197.003906 35.53125 197.257812 36.9375 196.882812 L 39.730469 196.136719 C 39.65625 195.96875 39.578125 195.800781 39.523438 195.613281 L 20.523438 128.15625 C 20.488281 128.035156 20.480469 127.910156 20.460938 127.796875 L 17.566406 128.738281 C 16.625 129.046875 15.789062 129.609375 15.195312 130.402344 C 12.714844 133.664062 7.410156 143.789062 13.265625 166.046875 C 18.128906 184.539062 28.449219 193.222656 32.839844 196.195312 Z M 56.984375 190.699219 C 57.050781 190.964844 57.097656 191.222656 57.117188 191.488281 L 58.152344 191.210938 C 60.847656 190.492188 62.425781 187.695312 61.648438 185.015625 L 44.410156 125.386719 C 43.625 122.679688 40.753906 121.15625 38.074219 122.035156 L 37.511719 122.21875 C 37.699219 122.535156 37.871094 122.867188 37.980469 123.234375 Z M 140.40625 197.925781 L 143.203125 198.671875 C 144.605469 199.046875 146.097656 198.792969 147.300781 197.976562 C 151.691406 195.011719 162.011719 186.328125 166.875 167.839844 C 172.730469 145.578125 167.429688 135.453125 164.949219 132.191406 C 164.351562 131.398438 163.515625 130.835938 162.574219 130.527344 L 159.675781 129.585938 C 159.65625 129.703125 159.652344 129.824219 159.613281 129.945312 L 140.617188 197.410156 C 140.558594 197.59375 140.484375 197.757812 140.40625 197.925781 Z M 118.488281 186.804688 L 135.726562 127.175781 C 136.511719 124.46875 139.382812 122.949219 142.066406 123.824219 L 142.628906 124.007812 C 142.4375 124.324219 142.265625 124.660156 142.164062 125.03125 L 123.15625 192.488281 C 123.085938 192.753906 123.042969 193.019531 123.023438 193.28125 L 121.984375 193 C 119.292969 192.28125 117.710938 189.484375 118.488281 186.804688 " fill-opacity="1" fill-rule="nonzero"/></g></svg>